<svg width="101" height="54" viewBox="0 0 101 54" fill="none"
    xmlns="http://www.w3.org/2000/svg">
    <path d="M16.012 1.504H29.044C31.348 1.504 32.5 2.428 32.5 4.276C32.5 4.924 32.2 5.62 31.6 6.364C30.616 5.932 29.2 5.716 27.352 5.716H24.508V24.292C24.508 25.588 24.904 26.44 25.696 26.848C24.784 27.88 23.68 28.396 22.384 28.396C20.032 28.396 18.856 26.968 18.856 24.112V5.716H14.32C12.016 5.716 10.864 4.792 10.864 2.944C10.864 2.296 11.164 1.6 11.764 0.856C12.748 1.288 14.164 1.504 16.012 1.504Z" fill="#33A2FF"/>
    <path d="M35.1286 14.372C35.3046 13.892 35.3926 13.46 35.3926 13.076C35.3926 12.692 35.3046 12.372 35.1286 12.116C35.5766 11.828 36.0966 11.684 36.6886 11.684C37.5366 11.684 38.1686 12.004 38.5846 12.644C38.7926 12.964 38.8966 13.34 38.8966 13.772C38.8966 14.204 38.7926 14.7 38.5846 15.26L34.0006 27.668C33.2006 29.844 31.9366 30.932 30.2086 30.932C29.4406 30.932 28.8086 30.732 28.3126 30.332C27.8166 29.932 27.5686 29.452 27.5686 28.892C27.5686 28.348 27.7126 27.844 28.0006 27.38C28.4326 27.732 28.8486 27.908 29.2486 27.908C29.6486 27.908 30.0006 27.788 30.3046 27.548C30.6246 27.324 30.8566 26.996 31.0006 26.564L31.6246 24.74C31.5766 24.74 31.5366 24.74 31.5046 24.74C30.8966 24.74 30.3206 24.508 29.7766 24.044C29.2326 23.564 28.8246 22.884 28.5526 22.004L26.2726 14.708C26.0966 14.132 25.9366 13.708 25.7926 13.436C25.6646 13.148 25.4726 12.908 25.2166 12.716C25.9366 12.028 26.6726 11.684 27.4246 11.684C28.1766 11.684 28.7606 11.9 29.1766 12.332C29.5926 12.764 29.9206 13.452 30.1606 14.396L32.3686 22.508L35.1286 14.372ZM47.2771 22.58C47.9171 22.58 48.4851 22.172 48.9811 21.356C49.4771 20.54 49.7251 19.5 49.7251 18.236C49.7251 16.972 49.4851 15.996 49.0051 15.308C48.5251 14.604 47.9491 14.252 47.2771 14.252C46.8451 14.252 46.4291 14.396 46.0291 14.684C45.6451 14.956 45.3331 15.332 45.0931 15.812V21.476C45.6851 22.212 46.4131 22.58 47.2771 22.58ZM41.3251 28.076V14.396C41.3251 13.564 41.0531 12.996 40.5091 12.692C41.1171 12.02 41.8531 11.684 42.7171 11.684C43.9811 11.684 44.7331 12.26 44.9731 13.412C45.8371 12.26 46.9971 11.684 48.4531 11.684C49.9091 11.684 51.1171 12.26 52.0771 13.412C53.0371 14.548 53.5171 16.14 53.5171 18.188C53.5171 20.236 52.9411 21.844 51.7891 23.012C50.6371 24.18 49.3091 24.764 47.8051 24.764C46.8131 24.764 45.9091 24.484 45.0931 23.924V28.196C45.0931 29.044 45.3571 29.604 45.8851 29.876C45.2931 30.58 44.5571 30.932 43.6771 30.932C42.1091 30.932 41.3251 29.98 41.3251 28.076ZM58.0839 5.684C58.7079 5.684 59.2199 5.876 59.6199 6.26C60.0359 6.628 60.2439 7.124 60.2439 7.748C60.2439 8.356 59.9799 8.916 59.4519 9.428C58.9399 9.94 58.3479 10.196 57.6759 10.196C57.0039 10.196 56.4599 10.004 56.0439 9.62C55.6439 9.22 55.4439 8.7 55.4439 8.06C55.4439 7.42 55.7239 6.868 56.2839 6.404C56.8599 5.924 57.4599 5.684 58.0839 5.684ZM59.8119 14.54V22.028C59.8119 22.892 60.0759 23.46 60.6039 23.732C59.9959 24.42 59.2599 24.764 58.3959 24.764C56.8279 24.764 56.0439 23.812 56.0439 21.908V14.396C56.0439 13.564 55.7719 13.004 55.2279 12.716C55.8359 12.028 56.5559 11.684 57.3879 11.684C58.2359 11.684 58.8519 11.916 59.2359 12.38C59.6199 12.844 59.8119 13.564 59.8119 14.54ZM75.0673 16.004V22.028C75.0673 22.892 75.3233 23.46 75.8353 23.732C75.2593 24.42 74.5312 24.764 73.6512 24.764C72.0833 24.764 71.2993 23.812 71.2993 21.908V16.556C71.2993 15.98 71.1553 15.532 70.8673 15.212C70.5953 14.876 70.2033 14.708 69.6913 14.708C69.1793 14.708 68.6833 14.948 68.2033 15.428C67.7233 15.892 67.3793 16.588 67.1713 17.516V22.028C67.1713 22.892 67.4353 23.46 67.9633 23.732C67.3553 24.42 66.6193 24.764 65.7553 24.764C64.1873 24.764 63.4033 23.812 63.4033 21.908V14.396C63.4033 13.564 63.1313 13.004 62.5873 12.716C63.1953 12.028 63.9073 11.684 64.7233 11.684C65.5393 11.684 66.1393 11.892 66.5233 12.308C66.9073 12.708 67.1233 13.332 67.1713 14.18C67.6033 13.364 68.1953 12.748 68.9473 12.332C69.7153 11.9 70.5953 11.684 71.5873 11.684C72.5953 11.684 73.4273 12.052 74.0833 12.788C74.7393 13.524 75.0673 14.596 75.0673 16.004ZM83.5811 19.844C84.4451 19.844 84.8771 18.988 84.8771 17.276C84.8771 17.052 84.8691 16.812 84.8531 16.556C84.7251 14.38 84.1891 13.292 83.2451 13.292C82.3651 13.292 81.9251 14.148 81.9251 15.86C81.9251 16.068 81.9331 16.3 81.9491 16.556C82.0771 18.748 82.6211 19.844 83.5811 19.844ZM86.5571 26.372H82.7411C81.4931 26.372 80.4211 26.108 79.5251 25.58C78.6291 25.068 78.1811 24.26 78.1811 23.156C78.1811 22.052 78.8371 21.172 80.1491 20.516C78.7571 19.604 78.0611 18.284 78.0611 16.556C78.0611 15.084 78.5811 13.908 79.6211 13.028C80.6611 12.132 81.9251 11.684 83.4131 11.684C84.5811 11.684 85.6291 11.972 86.5571 12.548C86.6211 11.54 86.8771 10.764 87.3251 10.22C87.7731 9.66 88.3091 9.38 88.9331 9.38C89.5571 9.38 90.0451 9.572 90.3971 9.956C90.7491 10.34 90.9251 10.788 90.9251 11.3C90.9251 12.116 90.6691 12.676 90.1571 12.98C89.7891 12.708 89.4291 12.572 89.0771 12.572C88.3891 12.572 87.9411 12.908 87.7331 13.58C88.4051 14.412 88.7411 15.404 88.7411 16.556C88.7411 18.028 88.2211 19.212 87.1811 20.108C86.1571 21.004 84.9011 21.452 83.4131 21.452C82.8051 21.452 82.2131 21.364 81.6371 21.188C81.2531 21.348 81.0611 21.612 81.0611 21.98C81.0611 22.332 81.2051 22.572 81.4931 22.7C81.7811 22.812 82.2771 22.868 82.9811 22.868H86.2691C87.4691 22.868 88.3491 23.156 88.9091 23.732C89.4851 24.308 89.7731 25.1 89.7731 26.108C89.7731 27.532 89.1331 28.692 87.8531 29.588C86.5891 30.484 84.9171 30.932 82.8371 30.932C80.7731 30.932 79.3091 30.636 78.4451 30.044C77.5971 29.468 77.1731 28.788 77.1731 28.004C77.1731 27.396 77.3971 26.916 77.8451 26.564C78.3091 26.212 78.8611 26.036 79.5011 26.036C79.5171 26.836 79.8211 27.404 80.4131 27.74C81.0211 28.076 81.9731 28.244 83.2691 28.244C84.5651 28.244 85.5411 28.116 86.1971 27.86C86.8531 27.62 87.1811 27.3 87.1811 26.9C87.1811 26.548 86.9731 26.372 86.5571 26.372Z" fill="#DFE2EC"/>
    <path d="M13.8203 46.3867C14.2109 46.3867 14.5898 46.3477 14.957 46.2695C15.332 46.1914 15.7031 46.0938 16.0703 45.9766V48.6367C15.6875 48.8086 15.2109 48.9492 14.6406 49.0586C14.0781 49.1758 13.4609 49.2344 12.7891 49.2344C12.0078 49.2344 11.3047 49.1094 10.6797 48.8594C10.0625 48.6016 9.57422 48.1602 9.21484 47.5352C8.86328 46.9023 8.6875 46.0234 8.6875 44.8984V38.582H6.97656V37.0703L8.94531 35.875L9.97656 33.1094H12.2617V35.8984H15.9297V38.582H12.2617V44.8984C12.2617 45.3984 12.4023 45.7734 12.6836 46.0234C12.9727 46.2656 13.3516 46.3867 13.8203 46.3867ZM26.043 35.6523C26.2227 35.6523 26.4297 35.6641 26.6641 35.6875C26.9062 35.7031 27.1016 35.7266 27.25 35.7578L26.9805 39.1094C26.8633 39.0703 26.6953 39.043 26.4766 39.0273C26.2656 39.0039 26.082 38.9922 25.9258 38.9922C25.4648 38.9922 25.0156 39.0508 24.5781 39.168C24.1484 39.2852 23.7617 39.4766 23.418 39.7422C23.0742 40 22.8008 40.3438 22.5977 40.7734C22.4023 41.1953 22.3047 41.7148 22.3047 42.332V49H18.7305V35.8984H21.4375L21.9648 38.1016H22.1406C22.3984 37.6562 22.7188 37.25 23.1016 36.8828C23.4922 36.5078 23.9336 36.2109 24.4258 35.9922C24.9258 35.7656 25.4648 35.6523 26.043 35.6523ZM34.9961 35.6289C36.7539 35.6289 38.1016 36.0117 39.0391 36.7773C39.9766 37.543 40.4453 38.707 40.4453 40.2695V49H37.9492L37.2578 47.2188H37.1641C36.7891 47.6875 36.4062 48.0703 36.0156 48.3672C35.625 48.6641 35.1758 48.8828 34.668 49.0234C34.1602 49.1641 33.543 49.2344 32.8164 49.2344C32.043 49.2344 31.3477 49.0859 30.7305 48.7891C30.1211 48.4922 29.6406 48.0391 29.2891 47.4297C28.9375 46.8125 28.7617 46.0312 28.7617 45.0859C28.7617 43.6953 29.25 42.6719 30.2266 42.0156C31.2031 41.3516 32.668 40.9844 34.6211 40.9141L36.8945 40.8438V40.2695C36.8945 39.582 36.7148 39.0781 36.3555 38.7578C35.9961 38.4375 35.4961 38.2773 34.8555 38.2773C34.2227 38.2773 33.6016 38.3672 32.9922 38.5469C32.3828 38.7266 31.7734 38.9531 31.1641 39.2266L29.9805 36.8125C30.6758 36.4453 31.4531 36.1562 32.3125 35.9453C33.1797 35.7344 34.0742 35.6289 34.9961 35.6289ZM36.8945 42.9297L35.5117 42.9766C34.3555 43.0078 33.5508 43.2148 33.0977 43.5977C32.6523 43.9805 32.4297 44.4844 32.4297 45.1094C32.4297 45.6562 32.5898 46.0469 32.9102 46.2812C33.2305 46.5078 33.6484 46.6211 34.1641 46.6211C34.9297 46.6211 35.5742 46.3945 36.0977 45.9414C36.6289 45.4883 36.8945 44.8438 36.8945 44.0078V42.9297ZM49.457 49.2344C48.1602 49.2344 47.0547 49 46.1406 48.5312C45.2266 48.0547 44.5312 47.3203 44.0547 46.3281C43.5781 45.3359 43.3398 44.0664 43.3398 42.5195C43.3398 40.918 43.6094 39.6133 44.1484 38.6055C44.6953 37.5898 45.4492 36.8438 46.4102 36.3672C47.3789 35.8906 48.5 35.6523 49.7734 35.6523C50.6797 35.6523 51.4609 35.7422 52.1172 35.9219C52.7812 36.0938 53.3594 36.3008 53.8516 36.543L52.7969 39.3086C52.2344 39.082 51.7109 38.8984 51.2266 38.7578C50.7422 38.6094 50.2578 38.5352 49.7734 38.5352C49.1484 38.5352 48.6289 38.6836 48.2148 38.9805C47.8008 39.2695 47.4922 39.707 47.2891 40.293C47.0859 40.8789 46.9844 41.6133 46.9844 42.4961C46.9844 43.3633 47.0938 44.082 47.3125 44.6523C47.5312 45.2227 47.8477 45.6484 48.2617 45.9297C48.6758 46.2031 49.1797 46.3398 49.7734 46.3398C50.5156 46.3398 51.1758 46.2422 51.7539 46.0469C52.332 45.8438 52.8945 45.5625 53.4414 45.2031V48.2617C52.8945 48.6055 52.3203 48.8516 51.7188 49C51.125 49.1562 50.3711 49.2344 49.457 49.2344ZM60.0625 30.7656V38.9219C60.0625 39.4141 60.043 39.9062 60.0039 40.3984C59.9648 40.8906 59.9219 41.3828 59.875 41.875H59.9219C60.1641 41.5312 60.4102 41.1914 60.6602 40.8555C60.918 40.5195 61.1914 40.1953 61.4805 39.8828L65.1484 35.8984H69.1797L63.9766 41.582L69.4961 49H65.3711L61.5977 43.6914L60.0625 44.9219V49H56.4883V30.7656H60.0625ZM76.7734 35.6523C77.9844 35.6523 79.0273 35.8867 79.9023 36.3555C80.7773 36.8164 81.4531 37.4883 81.9297 38.3711C82.4062 39.2539 82.6445 40.332 82.6445 41.6055V43.3398H74.1953C74.2344 44.3477 74.5352 45.1406 75.0977 45.7188C75.668 46.2891 76.457 46.5742 77.4648 46.5742C78.3008 46.5742 79.0664 46.4883 79.7617 46.3164C80.457 46.1445 81.1719 45.8867 81.9062 45.543V48.3086C81.2578 48.6289 80.5781 48.8633 79.8672 49.0117C79.1641 49.1602 78.3086 49.2344 77.3008 49.2344C75.9883 49.2344 74.8242 48.9922 73.8086 48.5078C72.8008 48.0234 72.0078 47.2852 71.4297 46.293C70.8594 45.3008 70.5742 44.0508 70.5742 42.543C70.5742 41.0117 70.832 39.7383 71.3477 38.7227C71.8711 37.6992 72.5977 36.9336 73.5273 36.4258C74.457 35.9102 75.5391 35.6523 76.7734 35.6523ZM76.7969 38.1953C76.1016 38.1953 75.5234 38.418 75.0625 38.8633C74.6094 39.3086 74.3477 40.0078 74.2773 40.9609H79.293C79.2852 40.4297 79.1875 39.957 79 39.543C78.8203 39.1289 78.5469 38.8008 78.1797 38.5586C77.8203 38.3164 77.3594 38.1953 76.7969 38.1953ZM92.8633 35.6523C93.043 35.6523 93.25 35.6641 93.4844 35.6875C93.7266 35.7031 93.9219 35.7266 94.0703 35.7578L93.8008 39.1094C93.6836 39.0703 93.5156 39.043 93.2969 39.0273C93.0859 39.0039 92.9023 38.9922 92.7461 38.9922C92.2852 38.9922 91.8359 39.0508 91.3984 39.168C90.9688 39.2852 90.582 39.4766 90.2383 39.7422C89.8945 40 89.6211 40.3438 89.418 40.7734C89.2227 41.1953 89.125 41.7148 89.125 42.332V49H85.5508V35.8984H88.2578L88.7852 38.1016H88.9609C89.2188 37.6562 89.5391 37.25 89.9219 36.8828C90.3125 36.5078 90.7539 36.2109 91.2461 35.9922C91.7461 35.7656 92.2852 35.6523 92.8633 35.6523Z" fill="#DFE2EC"/>
</svg>
