<svg width="15" height="18" viewBox="0 0 15 18" fill="none"
    xmlns="http://www.w3.org/2000/svg">
    <path d="M3.30975 17.0899C2.73975 17.0899 2.17976 16.9399 1.65976 16.6399C0.61976 16.0399 0.00976562 14.9799 0.00976562 13.7799V4.20989C0.00976562 3.01989 0.62976 1.9499 1.65976 1.3499C2.69976 0.749902 3.92975 0.749902 4.95975 1.3499L13.2498 6.1299C14.2798 6.7299 14.8997 7.79989 14.8997 8.98989C14.8997 10.1799 14.2798 11.2499 13.2498 11.8499L4.95975 16.6299C4.43975 16.9399 3.87975 17.0899 3.30975 17.0899ZM3.30975 2.4099C2.99975 2.4099 2.68976 2.48989 2.40976 2.64989C1.84976 2.97989 1.50977 3.55989 1.50977 4.20989V13.7799C1.50977 14.4299 1.84976 15.0099 2.40976 15.3399C2.96976 15.6599 3.64975 15.6699 4.20975 15.3399L12.4998 10.5599C13.0598 10.2299 13.3997 9.6499 13.3997 8.9999C13.3997 8.3499 13.0598 7.7699 12.4998 7.4399L4.20975 2.6599C3.92975 2.4999 3.61975 2.4099 3.30975 2.4099Z" fill="#fff"/>
</svg>
